<?xml version="1.0" encoding="utf-8"?>
<!-- Generator: Adobe Illustrator 22.0.0, SVG Export Plug-In . SVG Version: 6.00 Build 0)  -->
<svg version="1.1" id="entel" xmlns="http://www.w3.org/2000/svg" xmlns:xlink="http://www.w3.org/1999/xlink" x="0px" y="0px"
	 viewBox="0 0 317.8 80" style="enable-background:new 0 0 317.8 80;" xml:space="preserve">
<style type="text/css">
	.st0{fill-rule:evenodd;clip-rule:evenodd;fill:#fff;}
</style>
<path class="st0" d="M15,14.8h2.3c1.6,0,7.3,1.6,7.3,1.6h1c0.4,0,1-0.3,1.2-0.5c0.2,0,0.3,0.1,0.5,0.2l-9.6,6.8c0,0-2.9,1.4-2.9,2.8
	v17.2l-9.5,6.6c0.1-0.9,1.3-1.7,1.3-3V29.5c0-1.3,9.1-6.1,9.1-7.4c0-1.3-5.4-2.4-5.4-2.4c-1.7-0.1-2.4-0.1-4.1,0
	c-1.7,0.1-3.6,1.1-4.3,1.1C4,19.4,9.6,14.8,15,14.8z M34.5,15.2c1.5,0,2.4,1.6,4.9,4.9c0.6,0.8,3.5,4.4,3.5,6.1v1.3
	c0,3.5-9.1,7-9.1,8.4c0,1,4.8,0.5,6.9,1.9c2,1.4,2.9,4.2,2.9,5.8v4.1c0,2.5-3.4,3.4-7.6,6.6C34.2,55.8,28,60,27.5,60
	c0,0-7.2-3.9-10.6-3.9h-4.6c-1.9,0-6.7,1.7-7.1,1.7c0,0,7.2-7.1,14.5-7.1h4.9c1,0,4.5,1.4,5.4,1.7v-31c0-0.3-0.4-0.9-1-0.9
	c-1.4,0-2.3,2.5-2.3,2.6v18.4c0,0.8-3.2,3.3-4.9,4.3c-2.5,1.5-4.2,2.9-5.7,3.7v-0.4c0,0,1.3-1.5,1.3-2.3v-20c0-0.2,2.1-2.9,8-6.3
	C28.9,18.5,32.4,15.2,34.5,15.2z M31.7,23.6c0,0,3.9,4.3,3.9,6.8c0,1.9-1.5,2.7-3.9,4.1V23.6z M31.7,37.9c0.4,0.1,2.6,1.4,2.6,2.3
	v14c-0.6,0.3-0.1,0-0.5,0c-0.8,0-2.1-0.6-2.1-1.3V37.9z M124.8,32.7l8.7,4.3v18.8l-8.2,4l-8.8-3.8V36.4L124.8,32.7z M84.8,32.1
	l5.2,5.2v16.1l2.4,2.4l-4,3.9l-4.3-4v-15c-0.1,0-2.7-2.6-3.2-2.8l-2.9,2.7v12.9l2.2,2.2l-4.1,4l-3.8-3.7V39.9c0,0-1.8-1.5-2.6-2.4
	l5.1-5.2l5,4.8L84.8,32.1z M104.9,32.8l9.5,4c-0.4,0.5-3.3,2.7-4.4,2.9c0,0-7.8-3-7.9-3v15.8l6.5,3.2c0,0,3.8-1.3,4.7-1.3
	c0.1,0,0.3,0,0.5,0v0.4l-7.4,4.9h-1L96,55.5V37.1L104.9,32.8z M56.9,32.4c5.9,3,8.5,3.3,8.5,4.6v15.6l3.8,3.8l-3.5,3.4
	c-2.6-2.1-3.5-3-3.5-3L55.6,60l-8.9-4.1V45.7l8.7-4.3l4.8,1.9v-4.3l-7.6-2.6l-3.8,0.5l-0.2-0.6L56.9,32.4z M122.1,36.4l5.7,2.7v16.7
	l-5.7-2.6L122.1,36.4z M52.1,44.9l8,4v7.5l-8-3.7V44.9z M163.1,21.4c0.4,0,2,0.6,4.6,1.9c1.4,0.7,4,1.3,4,2.6v30.2l-8,3.8l-8.9-4.3
	V36.5l8.5-3.8c0.3,0,3,1.1,3,1.1v-6.1l-7.1-3c-1.2,0.1-2.5,1.2-3.9,1.4l0.3-1.2C155.7,24.9,162.1,21.4,163.1,21.4z M185.7,32.6
	l7.9,8.8L182,49.9v2.3c0,0.5,6.8,3.6,6.8,3.6s3.4-2.3,4.9-1.4c-0.1,0.1-8.2,5.4-8.2,5.4l-8.7-3.8V36.7L185.7,32.6z M160.5,36.4
	l5.8,2.7v16.7h-0.1l-5.7-2.6V36.4z M182.2,36.7l5.8,6.1l-5.8,4.3V36.7z M292.1,53.7l2.2,2.1l-4.4,4.1l-4.1-4.1v-28l6.3-6.2V53.7z
	 M258.3,20.7v17.7l6.3-6.2l4.8,4.8v22.4l-6,5.8h-0.1V40l-2.3-2.2l-2.7,2.3v13.3l2.3,2.2v0.1l-4.3,4.3l-4.1-4.1v-29l6.1-6V20.7z
	 M276.5,20.7h0.1l4.1,4.1V25l-4.3,4.3l-4.3-4.3L276.5,20.7z M306.4,32.9c0.2,0,7.9,8.4,8,8.8l-11.6,8.2v3.3l6.6,3
	c0,0,3.4-0.5,4.6-1.5l1.8,0.4c-0.1,0.2-8.1,5-9.4,5c-0.3,0-6.2-2.3-8.7-3.9V37.5C297.8,36.7,306.4,32.9,306.4,32.9z M276.6,32.2h0.1
	l3.8,3.8v17.3l2.3,2.2l-4.4,4.3l-4.1-4.1V38.3l-1.9-1.8L276.6,32.2z M303,37l5.5,5.7l-5.5,3.6L303,37z M234.7,17.6h0.5
	c-0.4,1-7,4.2-9.5,7.1c-3.9,4.5-6.5,7-6.1,14c0.3,4.1,3.5,10.1,7.2,12.2c1.1,0.7,4.8,2.7,8.2,2.8c4.9,0.2,3-0.8,3.7-0.4V23.8
	c0-0.4-0.9-2.3-1.7-2.3c-0.2,0-0.6,0.5-0.6,0.7v20.3c0,0.8-0.7,1.9-4.1,4.1c-3.5,2.3-4.6,3.1-5,3c0.1-0.2,0.6-1,0.9-1.2V27.4
	c0-2.1,3.1-3.3,5.7-5.4c4.4-3.4,6.8-4.1,6.8-4.1h1.1c2.9,0,4.8,3.5,5.1,3.9c0,0,0.8,0.3,1.1,0.6h1.7c0.5,0,1.7-0.7,2.4-0.6
	c-2,1.7-8.3,5.7-8.4,5.7h-1c-0.5,0-1.1-0.7-1.9-1.1V53c0.3,0,0.3,0,0.5,0c1.2,0,5.6-3.2,5.8-3.5h0.4v0.9c0,0-1.8,3.4-1.8,3.4
	c-3.8,4.4-8.1,6.5-14.1,6.5c-10.6,0.1-18.2-7.6-19-19.6c-0.8-11.9,7.6-21.7,17.4-22.3c1.4-0.1,3.2,0,3.4,0
	C233.3,18.3,234.6,17.7,234.7,17.6z"/>
</svg>
